<svg width="1370" height="430" viewBox="0 0 1370 430" fill="none" xmlns="http://www.w3.org/2000/svg">
<g filter="url(#filter0_d_85_206)">
<rect x="100" y="90" width="1170" height="230" rx="30" fill="white"/>
</g>
<path d="M269.925 207.425H272.725V218H269.925V207.425ZM269.8 203.65C269.8 203.217 269.967 202.858 270.3 202.575C270.65 202.292 271.025 202.15 271.425 202.15C271.808 202.15 272.167 202.292 272.5 202.575C272.833 202.858 273 203.217 273 203.65C273 204.083 272.833 204.442 272.5 204.725C272.167 204.992 271.808 205.125 271.425 205.125C271.025 205.125 270.65 204.992 270.3 204.725C269.967 204.442 269.8 204.083 269.8 203.65ZM279.091 207.425L279.291 209.325C279.657 208.608 280.199 208.042 280.916 207.625C281.632 207.192 282.482 206.975 283.466 206.975C284.449 206.975 285.266 207.275 285.916 207.875C286.582 208.458 286.924 209.217 286.941 210.15V218H284.141V211.15C284.107 210.617 283.949 210.192 283.666 209.875C283.399 209.542 282.957 209.367 282.341 209.35C281.474 209.35 280.757 209.725 280.191 210.475C279.641 211.208 279.366 212.15 279.366 213.3V218H276.566V207.425H279.091ZM291.724 218V209.875H289.924V207.4H291.724V203.25C291.724 201.783 292.091 200.633 292.824 199.8C293.574 198.95 294.657 198.525 296.074 198.525C296.474 198.525 296.907 198.583 297.374 198.7C297.857 198.817 298.291 199 298.674 199.25L297.499 201.275C297.332 201.108 297.149 200.992 296.949 200.925C296.749 200.858 296.557 200.825 296.374 200.825C295.807 200.825 295.357 201.017 295.024 201.4C294.691 201.783 294.524 202.425 294.524 203.325V207.4H297.824V209.875H294.524V218H291.724ZM299.323 212.6C299.323 211.533 299.573 210.575 300.073 209.725C300.59 208.875 301.29 208.2 302.173 207.7C303.073 207.2 304.107 206.95 305.273 206.95C306.457 206.95 307.482 207.2 308.348 207.7C309.232 208.2 309.915 208.875 310.398 209.725C310.882 210.575 311.123 211.533 311.123 212.6C311.123 213.667 310.882 214.633 310.398 215.5C309.915 216.35 309.232 217.025 308.348 217.525C307.465 218.025 306.432 218.275 305.248 218.275C304.098 218.275 303.073 218.05 302.173 217.6C301.29 217.133 300.59 216.475 300.073 215.625C299.573 214.775 299.323 213.767 299.323 212.6ZM302.148 212.625C302.148 213.258 302.282 213.833 302.548 214.35C302.815 214.85 303.173 215.25 303.623 215.55C304.09 215.833 304.615 215.975 305.198 215.975C306.115 215.975 306.857 215.658 307.423 215.025C307.99 214.375 308.273 213.575 308.273 212.625C308.273 211.675 307.99 210.875 307.423 210.225C306.857 209.575 306.115 209.25 305.198 209.25C304.615 209.25 304.09 209.408 303.623 209.725C303.173 210.025 302.815 210.433 302.548 210.95C302.282 211.45 302.148 212.008 302.148 212.625ZM323.291 223.55C321.924 223.55 320.632 223.35 319.416 222.95C318.199 222.55 317.124 221.942 316.191 221.125C315.257 220.325 314.524 219.317 313.991 218.1C313.457 216.883 313.191 215.45 313.191 213.8C313.191 212.75 313.349 211.658 313.666 210.525C313.999 209.375 314.507 208.267 315.191 207.2C315.891 206.133 316.791 205.175 317.891 204.325C318.991 203.475 320.307 202.8 321.841 202.3C323.391 201.783 325.182 201.525 327.216 201.525C329.316 201.525 331.099 201.925 332.566 202.725C334.049 203.525 335.174 204.608 335.941 205.975C336.724 207.325 337.116 208.833 337.116 210.5C337.116 211.533 336.957 212.517 336.641 213.45C336.341 214.367 335.907 215.183 335.341 215.9C334.774 216.617 334.099 217.183 333.316 217.6C332.532 218 331.674 218.2 330.741 218.2C330.007 218.2 329.374 218.017 328.841 217.65C328.307 217.267 327.941 216.75 327.741 216.1C327.424 216.467 327.024 216.817 326.541 217.15C326.074 217.467 325.566 217.733 325.016 217.95C324.466 218.167 323.899 218.275 323.316 218.275C322.399 218.275 321.574 218.083 320.841 217.7C320.124 217.3 319.557 216.733 319.141 216C318.724 215.267 318.524 214.383 318.541 213.35C318.541 212.167 318.799 211.092 319.316 210.125C319.832 209.142 320.549 208.367 321.466 207.8C322.382 207.233 323.449 206.95 324.666 206.95C325.749 206.95 326.566 207.15 327.116 207.55C327.666 207.95 328.091 208.425 328.391 208.975L328.816 207.425H331.466L330.541 214.1C330.474 214.567 330.507 214.942 330.641 215.225C330.774 215.508 331.041 215.65 331.441 215.65C331.941 215.65 332.424 215.425 332.891 214.975C333.357 214.525 333.741 213.917 334.041 213.15C334.357 212.367 334.516 211.483 334.516 210.5C334.516 209.267 334.224 208.142 333.641 207.125C333.057 206.092 332.191 205.267 331.041 204.65C329.907 204.033 328.499 203.725 326.816 203.725C325.032 203.725 323.499 203.975 322.216 204.475C320.949 204.958 319.891 205.592 319.041 206.375C318.207 207.142 317.549 207.983 317.066 208.9C316.582 209.8 316.232 210.675 316.016 211.525C315.816 212.375 315.716 213.1 315.716 213.7C315.716 215.483 316.074 216.933 316.791 218.05C317.507 219.183 318.466 220.017 319.666 220.55C320.882 221.083 322.232 221.35 323.716 221.35C324.682 221.35 325.632 221.2 326.566 220.9C327.516 220.6 328.399 220.192 329.216 219.675L330.366 221.3C329.699 221.8 328.966 222.217 328.166 222.55C327.366 222.883 326.541 223.133 325.691 223.3C324.857 223.467 324.057 223.55 323.291 223.55ZM324.416 215.975C325.166 215.975 325.816 215.775 326.366 215.375C326.932 214.975 327.374 214.425 327.691 213.725L328.016 211.425C327.916 210.775 327.599 210.25 327.066 209.85C326.549 209.45 325.899 209.25 325.116 209.25C324.432 209.25 323.816 209.425 323.266 209.775C322.732 210.125 322.307 210.583 321.991 211.15C321.674 211.717 321.516 212.333 321.516 213C321.516 213.833 321.782 214.542 322.316 215.125C322.866 215.692 323.566 215.975 324.416 215.975ZM340.966 223.075L343.441 217.575L338.541 207.425H341.691L344.841 214.425L347.991 207.425H350.541L343.716 223.075H340.966ZM351.57 212.6C351.57 211.533 351.82 210.575 352.32 209.725C352.836 208.875 353.536 208.2 354.42 207.7C355.32 207.2 356.353 206.95 357.52 206.95C358.703 206.95 359.728 207.2 360.595 207.7C361.478 208.2 362.161 208.875 362.645 209.725C363.128 210.575 363.37 211.533 363.37 212.6C363.37 213.667 363.128 214.633 362.645 215.5C362.161 216.35 361.478 217.025 360.595 217.525C359.711 218.025 358.678 218.275 357.495 218.275C356.345 218.275 355.32 218.05 354.42 217.6C353.536 217.133 352.836 216.475 352.32 215.625C351.82 214.775 351.57 213.767 351.57 212.6ZM354.395 212.625C354.395 213.258 354.528 213.833 354.795 214.35C355.061 214.85 355.42 215.25 355.87 215.55C356.336 215.833 356.861 215.975 357.445 215.975C358.361 215.975 359.103 215.658 359.67 215.025C360.236 214.375 360.52 213.575 360.52 212.625C360.52 211.675 360.236 210.875 359.67 210.225C359.103 209.575 358.361 209.25 357.445 209.25C356.861 209.25 356.336 209.408 355.87 209.725C355.42 210.025 355.061 210.433 354.795 210.95C354.528 211.45 354.395 212.008 354.395 212.625ZM369.712 218.45C368.745 218.45 367.945 218.158 367.312 217.575C366.678 216.975 366.345 216.208 366.312 215.275V207.425H369.112V214.275C369.145 214.808 369.295 215.242 369.562 215.575C369.828 215.892 370.253 216.05 370.837 216.05C371.67 216.05 372.353 215.675 372.887 214.925C373.42 214.175 373.687 213.233 373.687 212.1V207.425H376.487V218H373.962L373.762 216.125C373.428 216.808 372.903 217.367 372.187 217.8C371.47 218.233 370.645 218.45 369.712 218.45ZM382.875 207.425L383.075 209.875C383.375 209.275 383.783 208.758 384.3 208.325C384.816 207.875 385.341 207.533 385.875 207.3C386.425 207.067 386.875 206.95 387.225 206.95L387.1 209.75C386.3 209.683 385.6 209.825 385 210.175C384.416 210.525 383.958 211 383.625 211.6C383.308 212.183 383.15 212.8 383.15 213.45V218H380.35V207.425H382.875ZM394.677 218.275C393.427 218.275 392.36 218.033 391.477 217.55C390.594 217.067 389.919 216.4 389.452 215.55C388.985 214.683 388.752 213.708 388.752 212.625C388.752 211.575 389.019 210.625 389.552 209.775C390.085 208.908 390.802 208.225 391.702 207.725C392.602 207.208 393.61 206.95 394.727 206.95C396.177 206.95 397.369 207.375 398.302 208.225C399.252 209.058 399.885 210.242 400.202 211.775L392.077 214.525C392.677 215.425 393.56 215.875 394.727 215.875C395.16 215.875 395.569 215.8 395.952 215.65C396.352 215.5 396.735 215.3 397.102 215.05L398.377 217.125C397.81 217.475 397.202 217.758 396.552 217.975C395.902 218.175 395.277 218.275 394.677 218.275ZM391.502 212.475C391.502 212.608 391.51 212.75 391.527 212.9L397.077 210.925C396.877 210.458 396.577 210.05 396.177 209.7C395.777 209.333 395.219 209.15 394.502 209.15C393.619 209.15 392.894 209.458 392.327 210.075C391.777 210.692 391.502 211.492 391.502 212.475ZM405.482 207.425L405.682 209.3C406.082 208.567 406.624 207.992 407.307 207.575C407.991 207.158 408.782 206.95 409.682 206.95C410.549 206.95 411.274 207.142 411.857 207.525C412.441 207.908 412.799 208.442 412.932 209.125C413.382 208.458 413.932 207.933 414.582 207.55C415.249 207.15 415.949 206.95 416.682 206.95C417.732 206.95 418.557 207.25 419.157 207.85C419.774 208.433 420.091 209.192 420.107 210.125V218H417.332V211.2C417.299 210.7 417.182 210.283 416.982 209.95C416.782 209.6 416.416 209.408 415.882 209.375C415.282 209.375 414.766 209.567 414.332 209.95C413.899 210.317 413.557 210.8 413.307 211.4C413.074 211.983 412.957 212.6 412.957 213.25V218H410.132V211.2C410.116 210.7 409.999 210.283 409.782 209.95C409.566 209.6 409.182 209.408 408.632 209.375C408.049 209.375 407.541 209.567 407.107 209.95C406.674 210.317 406.341 210.8 406.107 211.4C405.874 211.983 405.757 212.6 405.757 213.25V218H402.957V207.425H405.482ZM428.403 218.275C427.403 218.275 426.503 218.067 425.703 217.65C424.903 217.233 424.262 216.617 423.778 215.8C423.312 214.983 423.078 213.958 423.078 212.725C423.078 211.525 423.32 210.5 423.803 209.65C424.303 208.783 424.953 208.117 425.753 207.65C426.57 207.183 427.453 206.95 428.403 206.95C429.387 206.95 430.178 207.142 430.778 207.525C431.395 207.892 431.887 208.333 432.253 208.85L432.453 207.425H435.028V218H432.228V216.45C432.045 216.667 431.778 216.917 431.428 217.2C431.078 217.483 430.645 217.733 430.128 217.95C429.628 218.167 429.053 218.275 428.403 218.275ZM429.178 215.975C429.928 215.975 430.57 215.775 431.103 215.375C431.637 214.975 432.012 214.425 432.228 213.725V211.425C432.028 210.775 431.645 210.25 431.078 209.85C430.512 209.45 429.845 209.25 429.078 209.25C428.495 209.25 427.962 209.392 427.478 209.675C427.012 209.942 426.628 210.333 426.328 210.85C426.045 211.35 425.903 211.925 425.903 212.575C425.903 213.208 426.053 213.783 426.353 214.3C426.653 214.817 427.045 215.225 427.528 215.525C428.028 215.825 428.578 215.975 429.178 215.975ZM438.895 207.425H441.695V218H438.895V207.425ZM438.77 203.65C438.77 203.217 438.936 202.858 439.27 202.575C439.62 202.292 439.995 202.15 440.395 202.15C440.778 202.15 441.136 202.292 441.47 202.575C441.803 202.858 441.97 203.217 441.97 203.65C441.97 204.083 441.803 204.442 441.47 204.725C441.136 204.992 440.778 205.125 440.395 205.125C439.995 205.125 439.62 204.992 439.27 204.725C438.936 204.442 438.77 204.083 438.77 203.65ZM445.535 198.5H448.335V218H445.535V198.5ZM450.901 216.475C450.901 216.058 451.059 215.7 451.376 215.4C451.693 215.1 452.043 214.95 452.426 214.95C452.776 214.95 453.109 215.1 453.426 215.4C453.743 215.7 453.901 216.058 453.901 216.475C453.901 216.942 453.743 217.317 453.426 217.6C453.109 217.867 452.776 218 452.426 218C452.043 218 451.693 217.867 451.376 217.6C451.059 217.317 450.901 216.942 450.901 216.475ZM465.174 217.025C464.707 217.408 464.132 217.717 463.449 217.95C462.782 218.167 462.107 218.275 461.424 218.275C460.257 218.275 459.232 218.05 458.349 217.6C457.466 217.15 456.774 216.508 456.274 215.675C455.791 214.842 455.549 213.85 455.549 212.7C455.549 211.55 455.807 210.558 456.324 209.725C456.857 208.892 457.549 208.258 458.399 207.825C459.249 207.375 460.166 207.15 461.149 207.15C462.032 207.15 462.816 207.275 463.499 207.525C464.182 207.758 464.774 208.083 465.274 208.5L463.874 210.325C463.607 210.108 463.257 209.908 462.824 209.725C462.407 209.525 461.932 209.425 461.399 209.425C460.832 209.425 460.316 209.567 459.849 209.85C459.399 210.133 459.032 210.525 458.749 211.025C458.482 211.508 458.349 212.067 458.349 212.7C458.349 213.6 458.657 214.375 459.274 215.025C459.891 215.658 460.691 215.975 461.674 215.975C462.491 215.975 463.191 215.742 463.774 215.275L465.174 217.025ZM467.17 212.6C467.17 211.533 467.42 210.575 467.92 209.725C468.437 208.875 469.137 208.2 470.02 207.7C470.92 207.2 471.953 206.95 473.12 206.95C474.303 206.95 475.328 207.2 476.195 207.7C477.078 208.2 477.762 208.875 478.245 209.725C478.728 210.575 478.97 211.533 478.97 212.6C478.97 213.667 478.728 214.633 478.245 215.5C477.762 216.35 477.078 217.025 476.195 217.525C475.312 218.025 474.278 218.275 473.095 218.275C471.945 218.275 470.92 218.05 470.02 217.6C469.137 217.133 468.437 216.475 467.92 215.625C467.42 214.775 467.17 213.767 467.17 212.6ZM469.995 212.625C469.995 213.258 470.128 213.833 470.395 214.35C470.662 214.85 471.02 215.25 471.47 215.55C471.937 215.833 472.462 215.975 473.045 215.975C473.962 215.975 474.703 215.658 475.27 215.025C475.837 214.375 476.12 213.575 476.12 212.625C476.12 211.675 475.837 210.875 475.27 210.225C474.703 209.575 473.962 209.25 473.045 209.25C472.462 209.25 471.937 209.408 471.47 209.725C471.02 210.025 470.662 210.433 470.395 210.95C470.128 211.45 469.995 212.008 469.995 212.625ZM484.437 207.425L484.637 209.3C485.037 208.567 485.579 207.992 486.262 207.575C486.946 207.158 487.737 206.95 488.637 206.95C489.504 206.95 490.229 207.142 490.812 207.525C491.396 207.908 491.754 208.442 491.887 209.125C492.337 208.458 492.887 207.933 493.537 207.55C494.204 207.15 494.904 206.95 495.637 206.95C496.687 206.95 497.512 207.25 498.112 207.85C498.729 208.433 499.046 209.192 499.062 210.125V218H496.287V211.2C496.254 210.7 496.137 210.283 495.937 209.95C495.737 209.6 495.371 209.408 494.837 209.375C494.237 209.375 493.721 209.567 493.287 209.95C492.854 210.317 492.512 210.8 492.262 211.4C492.029 211.983 491.912 212.6 491.912 213.25V218H489.087V211.2C489.071 210.7 488.954 210.283 488.737 209.95C488.521 209.6 488.137 209.408 487.587 209.375C487.004 209.375 486.496 209.567 486.062 209.95C485.629 210.317 485.296 210.8 485.062 211.4C484.829 211.983 484.712 212.6 484.712 213.25V218H481.912V207.425H484.437Z" fill="#232233"/>
<circle cx="200" cy="205" r="50" fill="#5956E9"/>
<g clip-path="url(#clip0_85_206)">
<path d="M185 190H215C215.442 190 215.866 190.176 216.179 190.488C216.491 190.801 216.667 191.225 216.667 191.667V218.333C216.667 218.775 216.491 219.199 216.179 219.512C215.866 219.824 215.442 220 215 220H185C184.558 220 184.134 219.824 183.821 219.512C183.509 219.199 183.333 218.775 183.333 218.333V191.667C183.333 191.225 183.509 190.801 183.821 190.488C184.134 190.176 184.558 190 185 190ZM200.1 204.472L189.413 195.397L187.255 197.937L200.122 208.862L212.757 197.928L210.577 195.407L200.102 204.472H200.1Z" fill="white"/>
</g>
<line x1="687" y1="147" x2="687" y2="264" stroke="#6C6C72" stroke-width="4"/>
<circle cx="785" cy="205" r="50" fill="#5956E9"/>
<g clip-path="url(#clip1_85_206)">
<path d="M800 212.367V218.26C800 218.682 799.84 219.088 799.553 219.397C799.265 219.706 798.871 219.894 798.45 219.923C797.722 219.973 797.127 220 796.667 220C781.938 220 770 208.062 770 193.333C770 192.873 770.025 192.278 770.077 191.55C770.106 191.129 770.294 190.735 770.603 190.447C770.912 190.16 771.318 190 771.74 190H777.633C777.84 190 778.039 190.076 778.193 190.215C778.346 190.354 778.443 190.544 778.463 190.75C778.502 191.133 778.537 191.438 778.57 191.67C778.901 193.982 779.58 196.23 780.583 198.338C780.742 198.672 780.638 199.07 780.338 199.283L776.742 201.853C778.941 206.977 783.024 211.061 788.148 213.26L790.715 209.67C790.82 209.523 790.973 209.418 791.147 209.373C791.322 209.327 791.507 209.345 791.67 209.422C793.778 210.423 796.026 211.1 798.337 211.43C798.568 211.463 798.873 211.5 799.253 211.537C799.459 211.558 799.649 211.654 799.787 211.808C799.926 211.961 800.002 212.16 800.002 212.367H800Z" fill="white"/>
</g>
<path d="M858.475 207.575H861.025V210.925H864.325V213.375H861.025V216.7H858.475V213.375H855.2V210.925H858.475V207.575ZM867.369 212.725C867.369 211.892 867.527 211.167 867.844 210.55C868.161 209.933 868.552 209.425 869.019 209.025C869.502 208.608 869.977 208.283 870.444 208.05C870.011 207.7 869.644 207.308 869.344 206.875C869.044 206.425 868.894 205.833 868.894 205.1C868.894 204.367 869.094 203.717 869.494 203.15C869.894 202.567 870.427 202.117 871.094 201.8C871.777 201.467 872.536 201.3 873.369 201.3C874.202 201.3 874.961 201.467 875.644 201.8C876.344 202.117 876.894 202.55 877.294 203.1C877.694 203.65 877.894 204.275 877.894 204.975C877.894 205.775 877.736 206.4 877.419 206.85C877.119 207.3 876.744 207.7 876.294 208.05C876.761 208.3 877.227 208.633 877.694 209.05C878.177 209.45 878.577 209.958 878.894 210.575C879.227 211.192 879.394 211.908 879.394 212.725C879.394 213.692 879.127 214.592 878.594 215.425C878.061 216.258 877.336 216.933 876.419 217.45C875.519 217.95 874.494 218.2 873.344 218.2C872.194 218.2 871.169 217.95 870.269 217.45C869.369 216.933 868.661 216.258 868.144 215.425C867.627 214.592 867.369 213.692 867.369 212.725ZM871.719 205.45C871.719 205.9 871.894 206.283 872.244 206.6C872.594 206.917 872.994 207.075 873.444 207.075C873.877 207.075 874.261 206.917 874.594 206.6C874.944 206.283 875.119 205.9 875.119 205.45C875.119 204.967 874.944 204.558 874.594 204.225C874.261 203.892 873.877 203.725 873.444 203.725C872.994 203.725 872.594 203.892 872.244 204.225C871.894 204.558 871.719 204.967 871.719 205.45ZM870.344 212.625C870.344 213.192 870.477 213.717 870.744 214.2C871.011 214.667 871.369 215.042 871.819 215.325C872.286 215.608 872.794 215.75 873.344 215.75C873.911 215.75 874.427 215.608 874.894 215.325C875.377 215.042 875.761 214.667 876.044 214.2C876.344 213.717 876.494 213.192 876.494 212.625C876.494 212.058 876.352 211.542 876.069 211.075C875.802 210.608 875.444 210.233 874.994 209.95C874.544 209.667 874.036 209.517 873.469 209.5C872.919 209.483 872.402 209.617 871.919 209.9C871.452 210.167 871.069 210.542 870.769 211.025C870.486 211.492 870.344 212.025 870.344 212.625ZM880.553 212.725C880.553 211.892 880.711 211.167 881.028 210.55C881.344 209.933 881.736 209.425 882.203 209.025C882.686 208.608 883.161 208.283 883.628 208.05C883.194 207.7 882.828 207.308 882.528 206.875C882.228 206.425 882.078 205.833 882.078 205.1C882.078 204.367 882.278 203.717 882.678 203.15C883.078 202.567 883.611 202.117 884.278 201.8C884.961 201.467 885.719 201.3 886.553 201.3C887.386 201.3 888.144 201.467 888.828 201.8C889.528 202.117 890.078 202.55 890.478 203.1C890.878 203.65 891.078 204.275 891.078 204.975C891.078 205.775 890.919 206.4 890.603 206.85C890.303 207.3 889.928 207.7 889.478 208.05C889.944 208.3 890.411 208.633 890.878 209.05C891.361 209.45 891.761 209.958 892.078 210.575C892.411 211.192 892.578 211.908 892.578 212.725C892.578 213.692 892.311 214.592 891.778 215.425C891.244 216.258 890.519 216.933 889.603 217.45C888.703 217.95 887.678 218.2 886.528 218.2C885.378 218.2 884.353 217.95 883.453 217.45C882.553 216.933 881.844 216.258 881.328 215.425C880.811 214.592 880.553 213.692 880.553 212.725ZM884.903 205.45C884.903 205.9 885.078 206.283 885.428 206.6C885.778 206.917 886.178 207.075 886.628 207.075C887.061 207.075 887.444 206.917 887.778 206.6C888.128 206.283 888.303 205.9 888.303 205.45C888.303 204.967 888.128 204.558 887.778 204.225C887.444 203.892 887.061 203.725 886.628 203.725C886.178 203.725 885.778 203.892 885.428 204.225C885.078 204.558 884.903 204.967 884.903 205.45ZM883.528 212.625C883.528 213.192 883.661 213.717 883.928 214.2C884.194 214.667 884.553 215.042 885.003 215.325C885.469 215.608 885.978 215.75 886.528 215.75C887.094 215.75 887.611 215.608 888.078 215.325C888.561 215.042 888.944 214.667 889.228 214.2C889.528 213.717 889.678 213.192 889.678 212.625C889.678 212.058 889.536 211.542 889.253 211.075C888.986 210.608 888.628 210.233 888.178 209.95C887.728 209.667 887.219 209.517 886.653 209.5C886.103 209.483 885.586 209.617 885.103 209.9C884.636 210.167 884.253 210.542 883.953 211.025C883.669 211.492 883.528 212.025 883.528 212.625ZM900.986 218.05C899.653 218.067 898.461 217.75 897.411 217.1C896.378 216.45 895.553 215.5 894.936 214.25C894.336 213 894.036 211.475 894.036 209.675C894.036 207.708 894.328 206.108 894.911 204.875C895.494 203.642 896.303 202.742 897.336 202.175C898.386 201.592 899.603 201.308 900.986 201.325C902.303 201.308 903.486 201.625 904.536 202.275C905.586 202.925 906.411 203.875 907.011 205.125C907.611 206.358 907.911 207.875 907.911 209.675C907.911 211.525 907.603 213.075 906.986 214.325C906.386 215.575 905.561 216.517 904.511 217.15C903.478 217.767 902.303 218.067 900.986 218.05ZM900.961 215.275C901.878 215.275 902.619 215.033 903.186 214.55C903.769 214.067 904.194 213.4 904.461 212.55C904.744 211.683 904.886 210.7 904.886 209.6C904.886 208.533 904.744 207.592 904.461 206.775C904.194 205.942 903.769 205.292 903.186 204.825C902.603 204.358 901.861 204.125 900.961 204.125C900.044 204.125 899.303 204.367 898.736 204.85C898.169 205.317 897.744 205.967 897.461 206.8C897.194 207.633 897.061 208.592 897.061 209.675C897.061 210.742 897.194 211.7 897.461 212.55C897.744 213.4 898.169 214.067 898.736 214.55C899.303 215.033 900.044 215.275 900.961 215.275ZM927.919 201.5L924.394 207.55C925.094 207.633 925.744 207.85 926.344 208.2C926.944 208.55 927.427 209.075 927.794 209.775C928.177 210.475 928.369 211.383 928.369 212.5C928.369 213.683 928.094 214.7 927.544 215.55C927.011 216.4 926.294 217.058 925.394 217.525C924.511 217.975 923.544 218.2 922.494 218.2C921.677 218.2 920.852 218.033 920.019 217.7C919.186 217.367 918.511 216.925 917.994 216.375L919.469 213.975C919.752 214.325 920.161 214.65 920.694 214.95C921.244 215.25 921.819 215.4 922.419 215.4C923.186 215.4 923.869 215.133 924.469 214.6C925.069 214.05 925.369 213.292 925.369 212.325C925.369 211.475 925.111 210.8 924.594 210.3C924.094 209.783 923.411 209.525 922.544 209.525C922.061 209.525 921.669 209.558 921.369 209.625C921.069 209.675 920.786 209.742 920.519 209.825L920.444 209.75L923.719 204.3H919.119V201.5H927.919ZM930.888 218C931.921 216.95 932.921 215.933 933.888 214.95C934.855 213.967 935.721 213.017 936.488 212.1C937.255 211.183 937.855 210.292 938.288 209.425C938.738 208.558 938.963 207.717 938.963 206.9C938.963 205.95 938.68 205.25 938.113 204.8C937.546 204.333 936.871 204.1 936.088 204.1C935.455 204.1 934.93 204.225 934.513 204.475C934.113 204.725 933.813 205.042 933.613 205.425C933.413 205.792 933.313 206.158 933.313 206.525C933.313 207.075 933.396 207.567 933.563 208C933.746 208.417 933.988 208.783 934.288 209.1L932.513 210.725C932.08 210.492 931.713 210.125 931.413 209.625C931.113 209.125 930.88 208.6 930.713 208.05C930.563 207.5 930.488 207.017 930.488 206.6C930.488 205.7 930.721 204.85 931.188 204.05C931.671 203.233 932.363 202.575 933.263 202.075C934.163 201.558 935.271 201.3 936.588 201.3C937.671 201.3 938.613 201.55 939.413 202.05C940.23 202.55 940.863 203.208 941.313 204.025C941.763 204.825 941.988 205.7 941.988 206.65C941.988 207.667 941.755 208.658 941.288 209.625C940.821 210.575 940.221 211.508 939.488 212.425C938.755 213.342 937.996 214.267 937.213 215.2H942.388V218H930.888ZM944.827 201.5H949.402V218H946.477V204.3H944.827V201.5ZM966.884 218.2C965.734 218.2 964.693 217.933 963.759 217.4C962.843 216.85 962.109 216.067 961.559 215.05C961.026 214.017 960.759 212.783 960.759 211.35C960.759 210.3 960.959 209.3 961.359 208.35C961.776 207.4 962.326 206.5 963.009 205.65C963.709 204.783 964.501 203.983 965.384 203.25C966.284 202.517 967.218 201.842 968.184 201.225L970.134 203.35C968.651 204.017 967.443 204.817 966.509 205.75C965.593 206.683 964.926 207.608 964.509 208.525C964.926 208.125 965.401 207.825 965.934 207.625C966.484 207.408 967.126 207.3 967.859 207.3C968.693 207.3 969.484 207.533 970.234 208C970.984 208.45 971.593 209.075 972.059 209.875C972.543 210.658 972.784 211.567 972.784 212.6C972.784 213.767 972.501 214.767 971.934 215.6C971.368 216.433 970.634 217.075 969.734 217.525C968.851 217.975 967.901 218.2 966.884 218.2ZM966.759 215.6C967.609 215.6 968.318 215.333 968.884 214.8C969.468 214.267 969.759 213.533 969.759 212.6C969.759 211.717 969.468 211.025 968.884 210.525C968.301 210.008 967.593 209.75 966.759 209.75C965.926 209.75 965.218 210 964.634 210.5C964.051 210.983 963.759 211.567 963.759 212.25V212.75C963.759 213.25 963.893 213.717 964.159 214.15C964.426 214.583 964.784 214.933 965.234 215.2C965.684 215.467 966.193 215.6 966.759 215.6ZM979.779 218.2C978.845 218.2 977.945 218.033 977.079 217.7C976.229 217.35 975.554 216.925 975.054 216.425L976.579 214.125C976.895 214.508 977.329 214.817 977.879 215.05C978.445 215.283 978.995 215.4 979.529 215.4C980.312 215.4 980.97 215.15 981.504 214.65C982.037 214.15 982.304 213.475 982.304 212.625C982.304 211.708 982.045 210.958 981.529 210.375C981.012 209.792 980.279 209.5 979.329 209.5C978.779 209.5 978.254 209.575 977.754 209.725C977.27 209.875 976.745 210.117 976.179 210.45H976.154V201.5H984.179V204.3H978.654V207.2C979.104 207.1 979.562 207.05 980.029 207.05C981.162 207.05 982.12 207.308 982.904 207.825C983.687 208.325 984.279 208.992 984.679 209.825C985.095 210.642 985.304 211.542 985.304 212.525C985.304 213.592 985.062 214.558 984.579 215.425C984.095 216.275 983.437 216.95 982.604 217.45C981.77 217.95 980.829 218.2 979.779 218.2ZM992.816 218.2C991.882 218.2 990.982 218.033 990.116 217.7C989.266 217.35 988.591 216.925 988.091 216.425L989.616 214.125C989.932 214.508 990.366 214.817 990.916 215.05C991.482 215.283 992.032 215.4 992.566 215.4C993.349 215.4 994.007 215.15 994.541 214.65C995.074 214.15 995.341 213.475 995.341 212.625C995.341 211.708 995.082 210.958 994.566 210.375C994.049 209.792 993.316 209.5 992.366 209.5C991.816 209.5 991.291 209.575 990.791 209.725C990.307 209.875 989.782 210.117 989.216 210.45H989.191V201.5H997.216V204.3H991.691V207.2C992.141 207.1 992.599 207.05 993.066 207.05C994.199 207.05 995.157 207.308 995.941 207.825C996.724 208.325 997.316 208.992 997.716 209.825C998.132 210.642 998.341 211.542 998.341 212.525C998.341 213.592 998.099 214.558 997.616 215.425C997.132 216.275 996.474 216.95 995.641 217.45C994.807 217.95 993.866 218.2 992.816 218.2ZM1013.54 212.7C1012.72 212.7 1011.93 212.475 1011.16 212.025C1010.41 211.575 1009.79 210.95 1009.31 210.15C1008.84 209.35 1008.61 208.442 1008.61 207.425C1008.61 206.175 1008.89 205.108 1009.46 204.225C1010.03 203.342 1010.76 202.667 1011.66 202.2C1012.56 201.717 1013.52 201.475 1014.54 201.475C1015.67 201.475 1016.69 201.733 1017.61 202.25C1018.54 202.75 1019.28 203.45 1019.81 204.35C1020.36 205.25 1020.64 206.275 1020.64 207.425C1020.64 208.758 1020.39 209.967 1019.91 211.05C1019.43 212.117 1018.79 213.083 1017.99 213.95C1017.19 214.817 1016.3 215.617 1015.34 216.35C1014.37 217.067 1013.4 217.742 1012.44 218.375L1010.49 216.25C1011.84 215.617 1013.01 214.925 1014.01 214.175C1015.03 213.425 1015.82 212.675 1016.39 211.925C1016.02 212.175 1015.6 212.367 1015.14 212.5C1014.67 212.633 1014.14 212.7 1013.54 212.7ZM1014.64 210.25C1015.5 210.25 1016.22 209.992 1016.79 209.475C1017.35 208.942 1017.64 208.292 1017.64 207.525V207.025C1017.64 206.492 1017.49 206.008 1017.21 205.575C1016.94 205.125 1016.59 204.767 1016.14 204.5C1015.7 204.217 1015.2 204.075 1014.64 204.075C1013.8 204.075 1013.09 204.358 1012.51 204.925C1011.93 205.475 1011.64 206.233 1011.64 207.2C1011.64 208.15 1011.93 208.9 1012.51 209.45C1013.09 209.983 1013.8 210.25 1014.64 210.25ZM1027.06 212.7C1026.24 212.7 1025.45 212.475 1024.69 212.025C1023.94 211.575 1023.32 210.95 1022.84 210.15C1022.37 209.35 1022.14 208.442 1022.14 207.425C1022.14 206.175 1022.42 205.108 1022.99 204.225C1023.55 203.342 1024.29 202.667 1025.19 202.2C1026.09 201.717 1027.04 201.475 1028.06 201.475C1029.19 201.475 1030.22 201.733 1031.14 202.25C1032.07 202.75 1032.8 203.45 1033.34 204.35C1033.89 205.25 1034.16 206.275 1034.16 207.425C1034.16 208.758 1033.92 209.967 1033.44 211.05C1032.95 212.117 1032.31 213.083 1031.51 213.95C1030.71 214.817 1029.83 215.617 1028.86 216.35C1027.89 217.067 1026.93 217.742 1025.96 218.375L1024.01 216.25C1025.36 215.617 1026.54 214.925 1027.54 214.175C1028.55 213.425 1029.34 212.675 1029.91 211.925C1029.54 212.175 1029.13 212.367 1028.66 212.5C1028.19 212.633 1027.66 212.7 1027.06 212.7ZM1028.16 210.25C1029.03 210.25 1029.74 209.992 1030.31 209.475C1030.88 208.942 1031.16 208.292 1031.16 207.525V207.025C1031.16 206.492 1031.02 206.008 1030.74 205.575C1030.47 205.125 1030.11 204.767 1029.66 204.5C1029.23 204.217 1028.73 204.075 1028.16 204.075C1027.33 204.075 1026.62 204.358 1026.04 204.925C1025.45 205.475 1025.16 206.233 1025.16 207.2C1025.16 208.15 1025.45 208.9 1026.04 209.45C1026.62 209.983 1027.33 210.25 1028.16 210.25ZM1035.39 212.725C1035.39 211.892 1035.54 211.167 1035.86 210.55C1036.18 209.933 1036.57 209.425 1037.04 209.025C1037.52 208.608 1037.99 208.283 1038.46 208.05C1038.03 207.7 1037.66 207.308 1037.36 206.875C1037.06 206.425 1036.91 205.833 1036.91 205.1C1036.91 204.367 1037.11 203.717 1037.51 203.15C1037.91 202.567 1038.44 202.117 1039.11 201.8C1039.79 201.467 1040.55 201.3 1041.39 201.3C1042.22 201.3 1042.98 201.467 1043.66 201.8C1044.36 202.117 1044.91 202.55 1045.31 203.1C1045.71 203.65 1045.91 204.275 1045.91 204.975C1045.91 205.775 1045.75 206.4 1045.44 206.85C1045.14 207.3 1044.76 207.7 1044.31 208.05C1044.78 208.3 1045.24 208.633 1045.71 209.05C1046.19 209.45 1046.59 209.958 1046.91 210.575C1047.24 211.192 1047.41 211.908 1047.41 212.725C1047.41 213.692 1047.14 214.592 1046.61 215.425C1046.08 216.258 1045.35 216.933 1044.44 217.45C1043.54 217.95 1042.51 218.2 1041.36 218.2C1040.21 218.2 1039.19 217.95 1038.29 217.45C1037.39 216.933 1036.68 216.258 1036.16 215.425C1035.64 214.592 1035.39 213.692 1035.39 212.725ZM1039.74 205.45C1039.74 205.9 1039.91 206.283 1040.26 206.6C1040.61 206.917 1041.01 207.075 1041.46 207.075C1041.89 207.075 1042.28 206.917 1042.61 206.6C1042.96 206.283 1043.14 205.9 1043.14 205.45C1043.14 204.967 1042.96 204.558 1042.61 204.225C1042.28 203.892 1041.89 203.725 1041.46 203.725C1041.01 203.725 1040.61 203.892 1040.26 204.225C1039.91 204.558 1039.74 204.967 1039.74 205.45ZM1038.36 212.625C1038.36 213.192 1038.49 213.717 1038.76 214.2C1039.03 214.667 1039.39 215.042 1039.84 215.325C1040.3 215.608 1040.81 215.75 1041.36 215.75C1041.93 215.75 1042.44 215.608 1042.91 215.325C1043.39 215.042 1043.78 214.667 1044.06 214.2C1044.36 213.717 1044.51 213.192 1044.51 212.625C1044.51 212.058 1044.37 211.542 1044.09 211.075C1043.82 210.608 1043.46 210.233 1043.01 209.95C1042.56 209.667 1042.05 209.517 1041.49 209.5C1040.94 209.483 1040.42 209.617 1039.94 209.9C1039.47 210.167 1039.09 210.542 1038.79 211.025C1038.5 211.492 1038.36 212.025 1038.36 212.625ZM1054.1 218.2C1053.16 218.2 1052.26 218.033 1051.4 217.7C1050.55 217.35 1049.87 216.925 1049.37 216.425L1050.9 214.125C1051.21 214.508 1051.65 214.817 1052.2 215.05C1052.76 215.283 1053.31 215.4 1053.85 215.4C1054.63 215.4 1055.29 215.15 1055.82 214.65C1056.35 214.15 1056.62 213.475 1056.62 212.625C1056.62 211.708 1056.36 210.958 1055.85 210.375C1055.33 209.792 1054.6 209.5 1053.65 209.5C1053.1 209.5 1052.57 209.575 1052.07 209.725C1051.59 209.875 1051.06 210.117 1050.5 210.45H1050.47V201.5H1058.5V204.3H1052.97V207.2C1053.42 207.1 1053.88 207.05 1054.35 207.05C1055.48 207.05 1056.44 207.308 1057.22 207.825C1058 208.325 1058.6 208.992 1059 209.825C1059.41 210.642 1059.62 211.542 1059.62 212.525C1059.62 213.592 1059.38 214.558 1058.9 215.425C1058.41 216.275 1057.75 216.95 1056.92 217.45C1056.09 217.95 1055.15 218.2 1054.1 218.2Z" fill="#232233"/>
<defs>
<filter id="filter0_d_85_206" x="0" y="0" width="1370" height="430" filterUnits="userSpaceOnUse" color-interpolation-filters="sRGB">
<feFlood flood-opacity="0" result="BackgroundImageFix"/>
<feColorMatrix in="SourceAlpha" type="matrix" values="0 0 0 0 0 0 0 0 0 0 0 0 0 0 0 0 0 0 127 0" result="hardAlpha"/>
<feOffset dy="10"/>
<feGaussianBlur stdDeviation="50"/>
<feColorMatrix type="matrix" values="0 0 0 0 0 0 0 0 0 0 0 0 0 0 0 0 0 0 0.24 0"/>
<feBlend mode="normal" in2="BackgroundImageFix" result="effect1_dropShadow_85_206"/>
<feBlend mode="normal" in="SourceGraphic" in2="effect1_dropShadow_85_206" result="shape"/>
</filter>
<clipPath id="clip0_85_206">
<rect width="40" height="40" fill="white" transform="translate(180 185)"/>
</clipPath>
<clipPath id="clip1_85_206">
<rect width="40" height="40" fill="white" transform="translate(765 185)"/>
</clipPath>
</defs>
</svg>
